PathFileType	4	(X/Y/Z)	C:\Users\WrightLab\Desktop\Jo\P3_21.trc
DataRate	CameraRate	NumFrames	NumMarkers	Units	OrigDataRate	OrigDataStartFrame	OrigNumFrames
100.00	100.00	       8	19	mm	100.00	154	       614
Frame#	Time	Headset_Front			Headset_Back			Headset_Left			Headset_Right			Left_Shoulder			Right_Shoulder			Sternum			C7			Left Elbow			Right Elbow			Left Wrist			Right Wrist			Left ASIS			Right ASIS			S2			Left Knee			Right Knee			Left Ankle			Right Ankle			
		X1	Y1	Z1	X2	Y2	Z2	X3	Y3	Z3	X4	Y4	Z4	X5	Y5	Z5	X6	Y6	Z6	X7	Y7	Z7	X8	Y8	Z8	X9	Y9	Z9	X10	Y10	Z10	X11	Y11	Z11	X12	Y12	Z12	X13	Y13	Z13	X14	Y14	Z14	X15	Y15	Z15	X16	Y16	Z16	X17	Y17	Z17	X18	Y18	Z18	X19	Y19	Z19	

154	1.530	-91.26214	1406.07947	1149.24109	31.47162	1638.43530	1299.59656	-101.52454	1542.38586	1308.66260	39.03355	1482.54211	1138.60327	-114.19556	1341.85022	1398.12292	228.91354	1366.30908	1314.74927	27.47852	1228.92651	1241.95813	67.26149	1413.53259	1401.93445	-258.34933	1043.77576	1388.92334	354.55054	1034.85254	1321.67078	-359.24106	914.07831	1263.34900	303.16681	890.22968	1150.05212	-41.78503	866.05060	1290.55042				105.46716	961.65686	1478.62964	-36.96339	474.47595	1215.61780	229.63811	467.26044	1400.65491	-27.67068	164.33752	1110.95398	234.42349	154.90282	1529.97168	
155	1.540	-94.42828	1404.98254	1142.17712	28.27083	1637.10925	1291.11816	-104.36043	1540.90100	1301.00293	35.61525	1482.63623	1130.16479	-116.43513	1339.98535	1390.56421	226.52852	1364.62122	1306.94629	24.68197	1227.49219	1233.77063	64.48436	1411.67822	1392.83008	-258.91211	1040.88025	1384.32715	351.53519	1033.08374	1311.15576	-361.06274	911.13617	1259.95032	299.26791	889.07245	1140.52454	-43.84719	865.03101	1280.41833				104.05193	959.89276	1469.14575	-39.46643	473.66699	1204.87585	227.95607	466.38208	1394.64526	-28.76009	161.86479	1103.67615	234.87865	155.94031	1528.08521	
156	1.550	-98.06821	1402.85461	1134.27429	25.45961	1635.66895	1282.65259	-107.46600	1539.65088	1293.29724	31.85396	1480.44104	1121.82751	-118.90932	1338.36511	1383.33069	223.66556	1363.32361	1297.84216	22.30377	1225.98511	1225.51892	62.40606	1410.34351	1384.85193	-260.31067	1038.63330	1379.84766	349.00967	1031.38013	1301.08276	-362.42563	907.68231	1257.46326	295.38141	887.91870	1130.24744	-46.31512	862.96985	1272.53015				102.47331	958.35736	1460.24817	-42.54804	472.93134	1194.41248	226.53752	464.98892	1386.89014	-29.99501	159.34233	1097.35596	234.63632	156.76201	1526.77173	
157	1.560	-101.79095	1402.01270	1126.53015	22.97606	1634.27222	1274.05750	-110.00295	1538.40515	1285.43030	28.54986	1479.65955	1114.41895	-120.86630	1337.18677	1376.44812	220.65881	1362.15576	1288.47363	18.37718	1225.19250	1216.04614	60.41549	1409.13159	1376.35986	-260.75995	1035.64636	1375.28674	345.37329	1029.90967	1291.72852	-363.64236	904.27222	1254.43677	291.01617	886.92706	1120.88184	-49.58064	861.99878	1263.80676				100.39198	956.20178	1449.48206	-43.77898	472.01581	1183.95642	225.10316	463.89056	1379.13464	-30.52473	155.20049	1093.50623	234.47852	157.95674	1525.19531	
158	1.570	-105.13340	1400.03040	1119.12378	20.05133	1633.01086	1265.62268	-112.71109	1537.15747	1277.55322	24.44956	1478.23376	1105.30725	-123.67039	1335.23389	1367.80127	217.70020	1360.70789	1278.81543	14.96120	1223.62012	1206.78247	57.94665	1407.77844	1367.69336	-262.02420	1033.35974	1370.95654	341.88791	1029.22351	1281.96399	-364.89523	900.33545	1251.38782	286.38190	885.55359	1110.78113	-51.97326	860.55383	1254.40833				98.90047	954.86871	1439.86389	-46.96759	471.06125	1172.00024	223.19720	462.98080	1371.81165	-29.27225	151.95654	1091.21643	234.68365	159.33792	1523.50061	
159	1.580	-109.26125	1399.96228	1110.82166	16.71935	1631.85767	1257.20776	-115.93123	1535.83386	1269.78894	20.38926	1477.81836	1096.97229	-126.20133	1333.87805	1360.19556	214.27907	1359.77429	1268.74988	11.43508	1223.17542	1198.54065	55.69244	1406.21875	1358.97998	-263.00598	1031.01270	1366.45801	338.51974	1027.51074	1272.63525	-366.12048	896.74957	1248.47449	282.21915	884.28027	1100.85559	-54.43715	859.32141	1245.66235				97.62929	953.87708	1430.30054	-49.17819	469.72165	1161.14624	221.52556	461.60800	1364.58398	-28.22097	147.98886	1089.87634	234.52608	161.10181	1521.89307	
160	1.590	-113.06318	1398.12854	1102.77783	13.43292	1630.83252	1248.80054	-119.31693	1534.97925	1261.89844	16.44728	1476.30579	1089.80078	-129.16386	1333.04773	1353.36768	211.32469	1358.45007	1259.34460	7.74059	1221.91919	1189.52039	52.62576	1405.22632	1350.38159	-263.74124	1029.06445	1361.67944	335.21381	1026.83228	1261.80396	-367.03836	893.76862	1245.55762	277.58005	882.79962	1091.41040	-58.12403	859.42810	1236.12402				95.40077	952.73492	1418.98303	-51.68145	468.74628	1151.57959	219.12112	461.09900	1355.91162	-27.29324	145.61421	1087.30701	234.38998	163.15685	1519.19543	
161	1.600	-117.17387	1398.19971	1094.46423	10.44707	1630.14697	1240.16064	-122.02489	1534.23853	1253.69629	12.89149	1475.39465	1080.44250	-131.75310	1331.72266	1346.40491	207.62537	1357.86035	1249.83459	4.42874	1221.46558	1180.18372	50.29987	1404.47046	1341.59021	-263.96564	1026.84900	1356.94141	331.73901	1025.62939	1252.29663	-367.99545	890.16406	1243.33862	272.97479	881.56586	1081.84302	-61.31928	858.79718	1225.44128				93.30527	951.70880	1408.60022	-53.26799	466.88260	1141.94568	216.89462	460.22726	1346.96973	-26.69451	144.77368	1079.32764	234.20836	164.80144	1516.55066	
